<?xml version="1.0" standalone="no"?><!DOCTYPE svg PUBLIC "-//W3C//DTD SVG 1.1//EN" "http://www.w3.org/Graphics/SVG/1.1/DTD/svg11.dtd"><svg t="1701336886581" class="icon" viewBox="0 0 1024 1024" version="1.1" xmlns="http://www.w3.org/2000/svg" p-id="4742" xmlns:xlink="http://www.w3.org/1999/xlink" width="200" height="200"><path d="M120.238 919.795c0 19.999 16.174 36.271 36.053 36.271 19.878 0 36.047-16.272 36.047-36.271 0-177.596 143.607-322.083 320.125-322.083 77.869 0 171.31 14.811 208.024 51.526 72.716 72.716 125.831 162.74 125.831 269.08 0 21.011 16.143 38.107 36.001 38.107 19.862 0 36.012-17.096 36.012-38.107C918.332 788.032 857.358 678.144 761 597c-12.667-10.667-62.594-41.371-98-46 87.18-48.684 114.492-141.241 114.492-219.919 0-147.027-118.892-266.643-265.028-266.643-146.134 0-265.022 119.616-265.022 266.643 0 89.789 45.941 173.558 119.624 222.485-147.015 59.355-246.828 204.972-246.828 366.229z m199.305-588.72c0-107.022 86.545-194.092 192.921-194.092 106.383 0 192.929 87.07 192.929 194.092s-86.546 194.094-192.929 194.094c-106.376 0-192.921-87.072-192.921-194.094z" fill="#FFFFFF" p-id="4743"></path></svg>